<svg width="56" height="56" viewBox="0 0 56 56" fill="none" xmlns="http://www.w3.org/2000/svg">
<path d="M33.8334 19.8333C33.8334 21.3804 33.2188 22.8642 32.1249 23.9581C31.0309 25.0521 29.5472 25.6667 28.0001 25.6667C26.453 25.6667 24.9693 25.0521 23.8753 23.9581C22.7813 22.8642 22.1667 21.3804 22.1667 19.8333C22.1667 18.2862 22.7813 16.8025 23.8753 15.7085C24.9693 14.6146 26.453 14 28.0001 14C29.5472 14 31.0309 14.6146 32.1249 15.7085C33.2188 16.8025 33.8334 18.2862 33.8334 19.8333Z" fill="white"/>
<path d="M36.3558 37.3335H19.8475C18.8838 37.3335 18.3728 36.2625 19.0378 35.5648C21.0141 33.4905 24.6378 30.3335 28.3898 30.3335C32.1768 30.3335 35.4785 33.5535 37.2098 35.6255C37.8025 36.3348 37.2798 37.3335 36.3558 37.3335Z" fill="white" stroke="white" stroke-width="2" stroke-linecap="round" stroke-linejoin="round"/>
<path d="M28.0001 51.3334C40.8867 51.3334 51.3334 40.8867 51.3334 28.0001C51.3334 15.1134 40.8867 4.66675 28.0001 4.66675C15.1134 4.66675 4.66675 15.1134 4.66675 28.0001C4.66675 40.8867 15.1134 51.3334 28.0001 51.3334Z" stroke="white" stroke-width="2"/>
</svg>
